<?xml version="1.0" standalone="no"?>
<!DOCTYPE svg PUBLIC "-//W3C//DTD SVG 20010904//EN" "http://www.w3.org/TR/2001/REC-SVG-20010904/DTD/svg10.dtd">
<svg version="1.0" xmlns="http://www.w3.org/2000/svg"
    width="256.000000pt" height="256.000000pt" viewBox="0 0 256.000000 256.000000"
    preserveAspectRatio="xMidYMid meet">

    <g transform="translate(0.000000,256.000000) scale(0.100000,-0.100000)"
        fill="#000000" stroke="none">
        <path
            d="M1140 2550 c-437 -55 -808 -316 -1004 -708 -87 -173 -127 -352 -127
-562 0 -354 126 -657 375 -905 147 -146 320 -251 516 -313 138 -43 227 -56
385 -56 152 1 260 17 392 60 375 121 689 431 813 802 50 152 64 242 64 412 0
170 -14 260 -64 412 -143 428 -523 758 -971 843 -104 19 -283 26 -379 15z
m346 -105 c240 -42 453 -154 629 -330 230 -230 346 -509 346 -835 0 -325 -116
-607 -345 -835 -155 -154 -335 -257 -546 -312 -127 -34 -353 -43 -485 -20
-567 99 -985 594 -985 1167 0 374 178 725 485 955 124 93 326 180 487 209 102
19 307 19 414 1z" />
        <path
            d="M1670 2264 c0 -3 30 -161 66 -352 36 -191 77 -408 90 -482 14 -74 28
-143 32 -154 6 -14 44 35 185 237 97 140 177 261 177 269 0 26 -101 168 -169
237 -82 84 -167 147 -276 206 -77 42 -105 53 -105 39z" />
    </g>
</svg>